<?xml version="1.0" encoding="UTF-8" standalone="no"?>
<svg
   xmlns:dc="http://purl.org/dc/elements/1.1/"
   xmlns:cc="http://creativecommons.org/ns#"
   xmlns:rdf="http://www.w3.org/1999/02/22-rdf-syntax-ns#"
   xmlns:svg="http://www.w3.org/2000/svg"
   xmlns="http://www.w3.org/2000/svg"
   xmlns:sodipodi="http://sodipodi.sourceforge.net/DTD/sodipodi-0.dtd"
   xmlns:inkscape="http://www.inkscape.org/namespaces/inkscape"
   id="svg2"
   viewBox="0 0 498.89477 451.13864"
   version="1.0"
   inkscape:version="0.48.4 r9939"
   width="100%"
   height="100%"
   sodipodi:docname="affinity_logo_default.svg">
  <sodipodi:namedview
     pagecolor="#ffffff"
     bordercolor="#666666"
     borderopacity="1"
     objecttolerance="10"
     gridtolerance="10"
     guidetolerance="10"
     inkscape:pageopacity="0"
     inkscape:pageshadow="2"
     inkscape:window-width="1600"
     inkscape:window-height="837"
     id="namedview58"
     showgrid="false"
     fit-margin-top="0"
     fit-margin-left="0"
     fit-margin-right="0"
     fit-margin-bottom="0"
     inkscape:zoom="1.3037281"
     inkscape:cx="194.96489"
     inkscape:cy="185.07782"
     inkscape:window-x="-4"
     inkscape:window-y="-4"
     inkscape:window-maximized="1"
     inkscape:current-layer="svg2" />
  <defs
     id="defs4">
    <clipPath
       id="clipPath6153"
       clipPathUnits="userSpaceOnUse">
      <rect
         id="rect6155"
         height="40.884998"
         width="112.59"
         y="29.247999"
         x="-17.926001"
         style="fill:#1a1a1a;stroke:#000000;stroke-linecap:round;stroke-linejoin:round" />
    </clipPath>
    <filter
       id="filter15047"
       color-interpolation-filters="sRGB">
      <feGaussianBlur
         id="feGaussianBlur15049"
         stdDeviation="0.26601997" />
    </filter>
    <filter
       id="filter16244"
       y="-0.19122"
       width="1.0456001"
       height="1.3824"
       x="-0.022794001"
       color-interpolation-filters="sRGB">
      <feGaussianBlur
         id="feGaussianBlur16246"
         stdDeviation="0.33972594" />
    </filter>
    <filter
       id="filter16314"
       color-interpolation-filters="sRGB">
      <feGaussianBlur
         id="feGaussianBlur16316"
         stdDeviation="0.12684216" />
    </filter>
    <linearGradient
       id="linearGradient3483"
       y2="59.381001"
       gradientUnits="userSpaceOnUse"
       x2="-78.32"
       y1="63.229"
       x1="-80.468002">
      <stop
         id="stop17743"
         stop-color="#d8d8d8"
         offset="0" />
      <stop
         id="stop17745"
         stop-color="#a0a0a0"
         offset="1" />
    </linearGradient>
    <linearGradient
       id="linearGradient3485"
       y2="45.915001"
       gradientUnits="userSpaceOnUse"
       x2="-80.788002"
       y1="21.207001"
       x1="-200.37">
      <stop
         id="stop17735"
         stop-color="#adadad"
         offset="0" />
      <stop
         id="stop17737"
         stop-color="#efefef"
         offset="1" />
    </linearGradient>
    <linearGradient
       id="linearGradient3487"
       y2="54.433998"
       gradientUnits="userSpaceOnUse"
       x2="48.089001"
       y1="63.969002"
       x1="51.396999">
      <stop
         id="stop12933"
         offset="0" />
      <stop
         id="stop12935"
         stop-color="#7e7e7e"
         offset="1" />
    </linearGradient>
    <filter
       id="filter3059"
       inkscape:label="Moonarize"
       x="0"
       y="0"
       width="1"
       height="1"
       inkscape:menu="Color"
       inkscape:menu-tooltip="An effect between solarize and invert which often preserves sky and water lights"
       color-interpolation-filters="sRGB">
      <feColorMatrix
         id="feColorMatrix3061"
         type="saturate"
         values="1"
         result="fbSourceGraphic" />
      <feColorMatrix
         id="feColorMatrix3063"
         in="fbSourceGraphic"
         values="-1 0 0 0 1 0 -1 0 0 1 0 0 -1 0 1 0 0 0 1 0 "
         result="fbSourceGraphic" />
      <feColorMatrix
         result="fbSourceGraphicAlpha"
         in="fbSourceGraphic"
         values="0 0 0 -1 0 0 0 0 -1 0 0 0 0 -1 0 0 0 0 1 0"
         id="feColorMatrix3066" />
      <feColorMatrix
         id="feColorMatrix3068"
         type="saturate"
         values="1"
         result="fbSourceGraphic"
         in="fbSourceGraphic" />
      <feColorMatrix
         id="feColorMatrix3070"
         in="fbSourceGraphic"
         values="-1 0 0 0 1 0 -1 0 0 1 0 0 -1 0 1 0 0 0 1 0 "
         result="fbSourceGraphic" />
      <feColorMatrix
         result="fbSourceGraphicAlpha"
         in="fbSourceGraphic"
         values="0 0 0 -1 0 0 0 0 -1 0 0 0 0 -1 0 0 0 0 1 0"
         id="feColorMatrix3072" />
      <feColorMatrix
         id="feColorMatrix3074"
         type="hueRotate"
         values="180"
         result="fbSourceGraphic"
         in="fbSourceGraphic" />
      <feColorMatrix
         id="feColorMatrix3076"
         in="fbSourceGraphic"
         values="-1 0 0 0 1 0 -1 0 0 1 0 0 -1 0 1 0 0 0 1 0 "
         result="result3" />
      <feBlend
         id="feBlend3078"
         in2="result3"
         mode="lighten"
         in="fbSourceGraphic"
         result="result2" />
      <feBlend
         id="feBlend3080"
         in2="result2"
         mode="multiply"
         result="result1"
         in="result2" />
      <feComposite
         id="feComposite3082"
         in2="fbSourceGraphic"
         operator="in" />
    </filter>
  </defs>
  <metadata
     id="metadata56">
    <rdf:RDF>
      <cc:Work>
        <dc:format>image/svg+xml</dc:format>
        <dc:type
           rdf:resource="http://purl.org/dc/dcmitype/StillImage" />
        <cc:license
           rdf:resource="http://creativecommons.org/licenses/publicdomain/" />
        <dc:publisher>
          <cc:Agent
             rdf:about="http://openclipart.org/">
            <dc:title>Openclipart</dc:title>
          </cc:Agent>
        </dc:publisher>
        <dc:title>Old School Game Controller</dc:title>
        <dc:date>2007-07-18T04:06:09</dc:date>
        <dc:description>A drawing of a retro-style video game controller, resembling one you would find with a Nintendo™ NES system.</dc:description>
        <dc:source>http://openclipart.org/detail/4435/old-school-game-controller-by-bhspitmonkey-4435</dc:source>
        <dc:creator>
          <cc:Agent>
            <dc:title>BHSPitMonkey</dc:title>
          </cc:Agent>
        </dc:creator>
        <dc:subject>
          <rdf:Bag>
            <rdf:li>clip art</rdf:li>
            <rdf:li>clipart</rdf:li>
            <rdf:li>controller</rdf:li>
            <rdf:li>game</rdf:li>
            <rdf:li>how i did it</rdf:li>
            <rdf:li>image</rdf:li>
            <rdf:li>media</rdf:li>
            <rdf:li>png</rdf:li>
            <rdf:li>public domain</rdf:li>
            <rdf:li>svg</rdf:li>
            <rdf:li>video game</rdf:li>
          </rdf:Bag>
        </dc:subject>
      </cc:Work>
      <cc:License
         rdf:about="http://creativecommons.org/licenses/publicdomain/">
        <cc:permits
           rdf:resource="http://creativecommons.org/ns#Reproduction" />
        <cc:permits
           rdf:resource="http://creativecommons.org/ns#Distribution" />
        <cc:permits
           rdf:resource="http://creativecommons.org/ns#DerivativeWorks" />
      </cc:License>
    </rdf:RDF>
  </metadata>
  <g
     transform="translate(-0.76703349,-26.079057)"
     style="font-size:340px;font-style:normal;font-weight:normal;line-height:125%;letter-spacing:0px;word-spacing:0px;fill:#000000;fill-opacity:1;stroke:none;filter:url(#filter3059);font-family:Sans"
     id="flowRoot3035">
    <path
       d="m 50.841064,169.42284 -8.5083,0 c -1.81237,-6.11472 -3.851248,-13.99008 -6.116639,-23.6261 -2.265447,-9.63561 -3.851241,-18.87368 -4.757385,-27.71423 8.612028,-5.20851 17.848368,-8.89025 27.709046,-11.04523 9.860575,-2.1545 21.929553,-3.23187 36.20697,-3.23211 10.202944,2.4e-4 19.100334,1.41656 26.692204,4.24896 7.59163,2.83288 13.93826,6.68582 19.03991,11.55884 5.10139,4.87347 8.95433,10.70995 11.55884,17.50946 2.60422,6.79992 3.90641,14.16686 3.90656,22.10083 -1.5e-4,10.20322 -1.86956,19.10061 -5.60822,26.6922 -3.73895,7.59191 -8.38565,14.44869 -13.94012,20.57037 -5.55473,6.12196 -11.61776,11.84603 -18.18909,17.17224 -6.57156,5.32645 -12.69165,10.93639 -18.36029,16.82984 -5.668831,5.89365 -10.372602,12.35442 -14.11133,19.38232 -3.738885,7.02807 -5.608288,15.30118 -5.608215,24.81934 l -6.796265,0 c -1.591048,-6.57831 -2.386538,-13.03907 -2.386474,-19.38233 -6.4e-5,-8.16234 1.303849,-15.35981 3.911743,-21.59241 2.607758,-6.23239 5.838142,-11.95474 9.691162,-17.16705 3.852864,-5.21207 8.046484,-10.14239 12.580871,-14.79095 4.534208,-4.6483 8.727828,-9.40914 12.580868,-14.28253 3.85284,-4.8731 7.08323,-10.0853 9.69117,-15.6366 2.60771,-5.55098 3.91162,-11.95468 3.91174,-19.21112 -1.2e-4,-4.9872 -0.73681,-9.91751 -2.21008,-14.79096 -1.4735,-4.87304 -3.74065,-9.29321 -6.80146,-13.26049 -3.06101,-3.96687 -6.97102,-7.14019 -11.73004,-9.51996 -4.759203,-2.37934 -10.538616,-3.56911 -17.338255,-3.56934 -7.256337,2.3e-4 -13.151615,0.56744 -17.685852,1.70166 -4.534357,1.13466 -7.707674,2.60805 -9.519958,4.42017 z m 5.437012,157.08191 c -4.8e-5,-6.7997 2.152965,-12.23843 6.459046,-16.31622 4.30597,-4.07772 9.858842,-6.1166 16.65863,-6.11664 7.027916,4e-5 12.694923,2.03892 17.001038,6.11664 4.30594,4.07779 6.45895,9.51652 6.45904,16.31622 -9e-5,6.57147 -2.1531,11.8978 -6.45904,15.97901 -4.306115,4.08121 -9.973122,6.12182 -17.001038,6.12182 -6.799788,0 -12.35266,-2.04061 -16.65863,-6.12182 -4.306081,-4.08121 -6.459094,-9.40754 -6.459046,-15.97901 z"
       style="font-variant:normal;font-stretch:normal;font-family:PT Serif;-inkscape-font-specification:PT Serif"
       id="path3103" />
    <path
       d="m 211.54419,169.42284 -8.5083,0 c -1.81237,-6.11472 -3.85125,-13.99008 -6.11664,-23.6261 -2.26545,-9.63561 -3.85124,-18.87368 -4.75738,-27.71423 8.61202,-5.20851 17.84836,-8.89025 27.70904,-11.04523 9.86058,-2.1545 21.92955,-3.23187 36.20697,-3.23211 10.20295,2.4e-4 19.10034,1.41656 26.6922,4.24896 7.59163,2.83288 13.93827,6.68582 19.03992,11.55884 5.10138,4.87347 8.95432,10.70995 11.55884,17.50946 2.60422,6.79992 3.9064,14.16686 3.90655,22.10083 -1.5e-4,10.20322 -1.86955,19.10061 -5.60821,26.6922 -3.73895,7.59191 -8.38566,14.44869 -13.94013,20.57037 -5.55473,6.12196 -11.61775,11.84603 -18.18909,17.17224 -6.57155,5.32645 -12.69164,10.93639 -18.36029,16.82984 -5.66883,5.89365 -10.3726,12.35442 -14.11132,19.38232 -3.73889,7.02807 -5.60829,15.30118 -5.60822,24.81934 l -6.79626,0 c -1.59105,-6.57831 -2.38654,-13.03907 -2.38648,-19.38233 -6e-5,-8.16234 1.30385,-15.35981 3.91174,-21.59241 2.60776,-6.23239 5.83815,-11.95474 9.69117,-17.16705 3.85286,-5.21207 8.04648,-10.14239 12.58087,-14.79095 4.5342,-4.6483 8.72782,-9.40914 12.58087,-14.28253 3.85284,-4.8731 7.08322,-10.0853 9.69116,-15.6366 2.60771,-5.55098 3.91163,-11.95468 3.91174,-19.21112 -1.1e-4,-4.9872 -0.73681,-9.91751 -2.21008,-14.79096 -1.4735,-4.87304 -3.74065,-9.29321 -6.80145,-13.26049 -3.06102,-3.96687 -6.97103,-7.14019 -11.73004,-9.51996 -4.75921,-2.37934 -10.53862,-3.56911 -17.33826,-3.56934 -7.25634,2.3e-4 -13.15161,0.56744 -17.68585,1.70166 -4.53436,1.13466 -7.70768,2.60805 -9.51996,4.42017 z m 5.43701,157.08191 c -5e-5,-6.7997 2.15297,-12.23843 6.45905,-16.31622 4.30597,-4.07772 9.85884,-6.1166 16.65863,-6.11664 7.02791,4e-5 12.69492,2.03892 17.00103,6.11664 4.30594,4.07779 6.45895,9.51652 6.45905,16.31622 -1e-4,6.57147 -2.15311,11.8978 -6.45905,15.97901 -4.30611,4.08121 -9.97312,6.12182 -17.00103,6.12182 -6.79979,0 -12.35266,-2.04061 -16.65863,-6.12182 -4.30608,-4.08121 -6.4591,-9.40754 -6.45905,-15.97901 z"
       style="font-variant:normal;font-stretch:normal;font-family:PT Serif;-inkscape-font-specification:PT Serif"
       id="path3105" />
    <path
       d="m 372.24731,169.42284 -8.5083,0 c -1.81237,-6.11472 -3.85124,-13.99008 -6.11663,-23.6261 -2.26545,-9.63561 -3.85125,-18.87368 -4.75739,-27.71423 8.61203,-5.20851 17.84837,-8.89025 27.70905,-11.04523 9.86057,-2.1545 21.92955,-3.23187 36.20697,-3.23211 10.20294,2.4e-4 19.10033,1.41656 26.6922,4.24896 7.59163,2.83288 13.93826,6.68582 19.03991,11.55884 5.10139,4.87347 8.95433,10.70995 11.55884,17.50946 2.60422,6.79992 3.90641,14.16686 3.90656,22.10083 -1.5e-4,10.20322 -1.86956,19.10061 -5.60822,26.6922 -3.73895,7.59191 -8.38565,14.44869 -13.94012,20.57037 -5.55473,6.12196 -11.61776,11.84603 -18.18909,17.17224 -6.57156,5.32645 -12.69165,10.93639 -18.36029,16.82984 -5.66883,5.89365 -10.3726,12.35442 -14.11133,19.38232 -3.73888,7.02807 -5.60829,15.30118 -5.60822,24.81934 l -6.79626,0 c -1.59105,-6.57831 -2.38654,-13.03907 -2.38647,-19.38233 -7e-5,-8.16234 1.30384,-15.35981 3.91174,-21.59241 2.60776,-6.23239 5.83814,-11.95474 9.69116,-17.16705 3.85287,-5.21207 8.04649,-10.14239 12.58087,-14.79095 4.53421,-4.6483 8.72783,-9.40914 12.58087,-14.28253 3.85284,-4.8731 7.08323,-10.0853 9.69117,-15.6366 2.60771,-5.55098 3.91162,-11.95468 3.91174,-19.21112 -1.2e-4,-4.9872 -0.73681,-9.91751 -2.21008,-14.79096 -1.4735,-4.87304 -3.74065,-9.29321 -6.80146,-13.26049 -3.06101,-3.96687 -6.97102,-7.14019 -11.73004,-9.51996 -4.7592,-2.37934 -10.53862,-3.56911 -17.33825,-3.56934 -7.25634,2.3e-4 -13.15162,0.56744 -17.68586,1.70166 -4.53435,1.13466 -7.70767,2.60805 -9.51996,4.42017 z m 5.43702,157.08191 c -5e-5,-6.7997 2.15296,-12.23843 6.45904,-16.31622 4.30597,-4.07772 9.85884,-6.1166 16.65863,-6.11664 7.02792,4e-5 12.69492,2.03892 17.00104,6.11664 4.30594,4.07779 6.45895,9.51652 6.45904,16.31622 -9e-5,6.57147 -2.1531,11.8978 -6.45904,15.97901 -4.30612,4.08121 -9.97312,6.12182 -17.00104,6.12182 -6.79979,0 -12.35266,-2.04061 -16.65863,-6.12182 -4.30608,-4.08121 -6.45909,-9.40754 -6.45904,-15.97901 z"
       style="font-variant:normal;font-stretch:normal;font-family:PT Serif;-inkscape-font-specification:PT Serif"
       id="path3107" />
  </g>
  <g
     transform="translate(-11.505471,-26.846083)"
     style="font-size:340px;font-style:normal;font-weight:normal;line-height:125%;letter-spacing:0px;word-spacing:0px;fill:#000000;fill-opacity:1;stroke:none;font-family:Sans"
     id="flowRoot3050">
    <path
       d="m 50.841064,169.42284 -8.5083,0 c -1.81237,-6.11472 -3.851248,-13.99008 -6.116639,-23.6261 -2.265447,-9.63561 -3.851241,-18.87368 -4.757385,-27.71423 8.612028,-5.20851 17.848368,-8.89025 27.709046,-11.04523 9.860575,-2.1545 21.929553,-3.23187 36.20697,-3.23211 10.202944,2.4e-4 19.100334,1.41656 26.692204,4.24896 7.59163,2.83288 13.93826,6.68582 19.03991,11.55884 5.10139,4.87347 8.95433,10.70995 11.55884,17.50946 2.60422,6.79992 3.90641,14.16686 3.90656,22.10083 -1.5e-4,10.20322 -1.86956,19.10061 -5.60822,26.6922 -3.73895,7.59191 -8.38565,14.44869 -13.94012,20.57037 -5.55473,6.12196 -11.61776,11.84603 -18.18909,17.17224 -6.57156,5.32645 -12.69165,10.93639 -18.36029,16.82984 -5.668831,5.89365 -10.372602,12.35442 -14.11133,19.38232 -3.738885,7.02807 -5.608288,15.30118 -5.608215,24.81934 l -6.796265,0 c -1.591048,-6.57831 -2.386538,-13.03907 -2.386474,-19.38233 -6.4e-5,-8.16234 1.303849,-15.35981 3.911743,-21.59241 2.607758,-6.23239 5.838142,-11.95474 9.691162,-17.16705 3.852864,-5.21207 8.046484,-10.14239 12.580871,-14.79095 4.534208,-4.6483 8.727828,-9.40914 12.580868,-14.28253 3.85284,-4.8731 7.08323,-10.0853 9.69117,-15.6366 2.60771,-5.55098 3.91162,-11.95468 3.91174,-19.21112 -1.2e-4,-4.9872 -0.73681,-9.91751 -2.21008,-14.79096 -1.4735,-4.87304 -3.74065,-9.29321 -6.80146,-13.26049 -3.06101,-3.96687 -6.97102,-7.14019 -11.73004,-9.51996 -4.759203,-2.37934 -10.538616,-3.56911 -17.338255,-3.56934 -7.256337,2.3e-4 -13.151615,0.56744 -17.685852,1.70166 -4.534357,1.13466 -7.707674,2.60805 -9.519958,4.42017 z m 5.437012,157.08191 c -4.8e-5,-6.7997 2.152965,-12.23843 6.459046,-16.31622 4.30597,-4.07772 9.858842,-6.1166 16.65863,-6.11664 7.027916,4e-5 12.694923,2.03892 17.001038,6.11664 4.30594,4.07779 6.45895,9.51652 6.45904,16.31622 -9e-5,6.57147 -2.1531,11.8978 -6.45904,15.97901 -4.306115,4.08121 -9.973122,6.12182 -17.001038,6.12182 -6.799788,0 -12.35266,-2.04061 -16.65863,-6.12182 -4.306081,-4.08121 -6.459094,-9.40754 -6.459046,-15.97901 z"
       style="font-variant:normal;font-stretch:normal;font-family:PT Serif;-inkscape-font-specification:PT Serif"
       id="path3110" />
    <path
       d="m 211.54419,169.42284 -8.5083,0 c -1.81237,-6.11472 -3.85125,-13.99008 -6.11664,-23.6261 -2.26545,-9.63561 -3.85124,-18.87368 -4.75738,-27.71423 8.61202,-5.20851 17.84836,-8.89025 27.70904,-11.04523 9.86058,-2.1545 21.92955,-3.23187 36.20697,-3.23211 10.20295,2.4e-4 19.10034,1.41656 26.6922,4.24896 7.59163,2.83288 13.93827,6.68582 19.03992,11.55884 5.10138,4.87347 8.95432,10.70995 11.55884,17.50946 2.60422,6.79992 3.9064,14.16686 3.90655,22.10083 -1.5e-4,10.20322 -1.86955,19.10061 -5.60821,26.6922 -3.73895,7.59191 -8.38566,14.44869 -13.94013,20.57037 -5.55473,6.12196 -11.61775,11.84603 -18.18909,17.17224 -6.57155,5.32645 -12.69164,10.93639 -18.36029,16.82984 -5.66883,5.89365 -10.3726,12.35442 -14.11132,19.38232 -3.73889,7.02807 -5.60829,15.30118 -5.60822,24.81934 l -6.79626,0 c -1.59105,-6.57831 -2.38654,-13.03907 -2.38648,-19.38233 -6e-5,-8.16234 1.30385,-15.35981 3.91174,-21.59241 2.60776,-6.23239 5.83815,-11.95474 9.69117,-17.16705 3.85286,-5.21207 8.04648,-10.14239 12.58087,-14.79095 4.5342,-4.6483 8.72782,-9.40914 12.58087,-14.28253 3.85284,-4.8731 7.08322,-10.0853 9.69116,-15.6366 2.60771,-5.55098 3.91163,-11.95468 3.91174,-19.21112 -1.1e-4,-4.9872 -0.73681,-9.91751 -2.21008,-14.79096 -1.4735,-4.87304 -3.74065,-9.29321 -6.80145,-13.26049 -3.06102,-3.96687 -6.97103,-7.14019 -11.73004,-9.51996 -4.75921,-2.37934 -10.53862,-3.56911 -17.33826,-3.56934 -7.25634,2.3e-4 -13.15161,0.56744 -17.68585,1.70166 -4.53436,1.13466 -7.70768,2.60805 -9.51996,4.42017 z m 5.43701,157.08191 c -5e-5,-6.7997 2.15297,-12.23843 6.45905,-16.31622 4.30597,-4.07772 9.85884,-6.1166 16.65863,-6.11664 7.02791,4e-5 12.69492,2.03892 17.00103,6.11664 4.30594,4.07779 6.45895,9.51652 6.45905,16.31622 -1e-4,6.57147 -2.15311,11.8978 -6.45905,15.97901 -4.30611,4.08121 -9.97312,6.12182 -17.00103,6.12182 -6.79979,0 -12.35266,-2.04061 -16.65863,-6.12182 -4.30608,-4.08121 -6.4591,-9.40754 -6.45905,-15.97901 z"
       style="font-variant:normal;font-stretch:normal;font-family:PT Serif;-inkscape-font-specification:PT Serif"
       id="path3112" />
    <path
       d="m 372.24731,169.42284 -8.5083,0 c -1.81237,-6.11472 -3.85124,-13.99008 -6.11663,-23.6261 -2.26545,-9.63561 -3.85125,-18.87368 -4.75739,-27.71423 8.61203,-5.20851 17.84837,-8.89025 27.70905,-11.04523 9.86057,-2.1545 21.92955,-3.23187 36.20697,-3.23211 10.20294,2.4e-4 19.10033,1.41656 26.6922,4.24896 7.59163,2.83288 13.93826,6.68582 19.03991,11.55884 5.10139,4.87347 8.95433,10.70995 11.55884,17.50946 2.60422,6.79992 3.90641,14.16686 3.90656,22.10083 -1.5e-4,10.20322 -1.86956,19.10061 -5.60822,26.6922 -3.73895,7.59191 -8.38565,14.44869 -13.94012,20.57037 -5.55473,6.12196 -11.61776,11.84603 -18.18909,17.17224 -6.57156,5.32645 -12.69165,10.93639 -18.36029,16.82984 -5.66883,5.89365 -10.3726,12.35442 -14.11133,19.38232 -3.73888,7.02807 -5.60829,15.30118 -5.60822,24.81934 l -6.79626,0 c -1.59105,-6.57831 -2.38654,-13.03907 -2.38647,-19.38233 -7e-5,-8.16234 1.30384,-15.35981 3.91174,-21.59241 2.60776,-6.23239 5.83814,-11.95474 9.69116,-17.16705 3.85287,-5.21207 8.04649,-10.14239 12.58087,-14.79095 4.53421,-4.6483 8.72783,-9.40914 12.58087,-14.28253 3.85284,-4.8731 7.08323,-10.0853 9.69117,-15.6366 2.60771,-5.55098 3.91162,-11.95468 3.91174,-19.21112 -1.2e-4,-4.9872 -0.73681,-9.91751 -2.21008,-14.79096 -1.4735,-4.87304 -3.74065,-9.29321 -6.80146,-13.26049 -3.06101,-3.96687 -6.97102,-7.14019 -11.73004,-9.51996 -4.7592,-2.37934 -10.53862,-3.56911 -17.33825,-3.56934 -7.25634,2.3e-4 -13.15162,0.56744 -17.68586,1.70166 -4.53435,1.13466 -7.70767,2.60805 -9.51996,4.42017 z m 5.43702,157.08191 c -5e-5,-6.7997 2.15296,-12.23843 6.45904,-16.31622 4.30597,-4.07772 9.85884,-6.1166 16.65863,-6.11664 7.02792,4e-5 12.69492,2.03892 17.00104,6.11664 4.30594,4.07779 6.45895,9.51652 6.45904,16.31622 -9e-5,6.57147 -2.1531,11.8978 -6.45904,15.97901 -4.30612,4.08121 -9.97312,6.12182 -17.00104,6.12182 -6.79979,0 -12.35266,-2.04061 -16.65863,-6.12182 -4.30608,-4.08121 -6.45909,-9.40754 -6.45904,-15.97901 z"
       style="font-variant:normal;font-stretch:normal;font-family:PT Serif;-inkscape-font-specification:PT Serif"
       id="path3114" />
  </g>
  <g
     inkscape:groupmode="layer"
     id="layer1"
     inkscape:label="Layer"
     style="display:inline" />
  <g
     inkscape:groupmode="layer"
     id="layer2"
     inkscape:label="Layer#1"
     style="display:inline" />
</svg>
