<?xml version="1.0" encoding="UTF-8" standalone="no"?>
<svg
   xmlns:dc="http://purl.org/dc/elements/1.1/"
   xmlns:cc="http://creativecommons.org/ns#"
   xmlns:rdf="http://www.w3.org/1999/02/22-rdf-syntax-ns#"
   xmlns:svg="http://www.w3.org/2000/svg"
   xmlns="http://www.w3.org/2000/svg"
   xmlns:sodipodi="http://sodipodi.sourceforge.net/DTD/sodipodi-0.dtd"
   xmlns:inkscape="http://www.inkscape.org/namespaces/inkscape"
   id="svg2"
   viewBox="0 0 494.98999 355.13399"
   version="1.1"
   inkscape:version="0.48.4 r9939"
   width="100%"
   height="100%"
   sodipodi:docname="affinity_logo_book.svg">
  <sodipodi:namedview
     pagecolor="#ffffff"
     bordercolor="#666666"
     borderopacity="1"
     objecttolerance="10"
     gridtolerance="10"
     guidetolerance="10"
     inkscape:pageopacity="0"
     inkscape:pageshadow="2"
     inkscape:window-width="1064"
     inkscape:window-height="769"
     id="namedview30"
     showgrid="false"
     fit-margin-top="0"
     fit-margin-left="0"
     fit-margin-right="0"
     fit-margin-bottom="0"
     inkscape:zoom="0.44849867"
     inkscape:cx="209.09053"
     inkscape:cy="-58.903055"
     inkscape:window-x="0"
     inkscape:window-y="0"
     inkscape:window-maximized="0"
     inkscape:current-layer="svg2" />
  <defs
     id="defs4">
    <linearGradient
       id="linearGradient2410"
       y2="513.78003"
       gradientUnits="userSpaceOnUse"
       x2="341.64001"
       gradientTransform="translate(0,-360)"
       y1="575.40002"
       x1="472.95999">
      <stop
         id="stop3186"
         stop-color="#e3dbdb"
         offset="0" />
      <stop
         id="stop3195"
         stop-color="#fff"
         offset="1" />
      <stop
         id="stop3188"
         stop-color="#e3dbdb"
         stop-opacity="0"
         offset="1" />
    </linearGradient>
    <linearGradient
       id="linearGradient2413"
       y2="532.64001"
       gradientUnits="userSpaceOnUse"
       x2="348.98999"
       gradientTransform="translate(0,-360)"
       y1="576.08002"
       x1="98.749001">
      <stop
         id="stop3178"
         stop-color="#e3dbdb"
         offset="0" />
      <stop
         id="stop3192"
         stop-color="#fff"
         offset="1" />
      <stop
         id="stop3180"
         stop-color="#e3dbdb"
         stop-opacity="0"
         offset="1" />
    </linearGradient>
    <linearGradient
       id="linearGradient2416"
       y2="732.56"
       gradientUnits="userSpaceOnUse"
       x2="469.14001"
       gradientTransform="translate(0,-360)"
       y1="608.60999"
       x1="163.42999">
      <stop
         id="stop3194"
         stop-color="#ac9393"
         offset="0" />
      <stop
         id="stop3197"
         stop-color="#fff"
         offset="1" />
      <stop
         id="stop3196"
         stop-color="#ac9393"
         stop-opacity="0"
         offset="1" />
    </linearGradient>
  </defs>
  <g
     id="layer1"
     transform="translate(-134.86001,-62.576)">
    <g
       id="g3199"
       style="fill-rule:evenodd;stroke:#000000;stroke-width:1px">
      <path
         id="path2416"
         d="m 582.66,262.1 46.69,103.59 -202.81,27.53 c 0,0 0.5,6.06 -12.12,4.29 -12.63,-1.77 -22.23,-10.61 -22.48,-20.71 l -217.69,40.41 -38.89,-228.8 h 11.11 l 0.76,2.52 h -5.3 l 38.13,218.95 213.65,-37.88 0.75,6.07 12.88,-0.76 c 0,0 1.01,14.64 16.92,14.64 l 3.03,-4.79 196.73,-26.52 -43.54,-97.14 2.18,-1.4 z"
         inkscape:connector-curvature="0"
         style="fill:#552200" />
      <path
         id="path2400"
         d="m 147.5,190.43 -4.64,0.72 37.5,218.21 211.93,-37.92 c 0,0 -56.93,-29.93 -201.22,33.28 L 147.5,190.43 z"
         inkscape:connector-curvature="0"
         style="fill:#aa4400" />
      <path
         id="path2402"
         d="m 147.5,185.58 -0.71,-16.07 2.85,-1.43 v -13.57 l 5.36,-11.08 2.86,-1.42 v -6.79 l 5.71,-5 47.14,211.07 -6.78,10.72 -0.36,5 -3.21,4.28 -5.72,5.72 -4.1,36.96 -43.04,-218.39 z"
         inkscape:connector-curvature="0"
         style="fill:#c8b7b7" />
      <path
         id="path2388"
         d="m 190.54,404.15 3.75,-37.5 9.28,-8.93 v -6.07 l 7.14,-10.36 c 0,0 182.15,-6.07 194.65,26.43 l -12.5,3.21 c 0,0 -57.68,-29.64 -202.32,33.22 z"
         inkscape:connector-curvature="0"
         style="fill:#c8b7b7" />
      <path
         id="path2394"
         d="m 188.57,130.22 h -24.64 l 46.78,210.71 c 0,0 173.58,-6.78 194.29,26.08 20.71,32.86 -4.64,-36.08 -177.14,-54.29 l -39.29,-182.5 z"
         inkscape:connector-curvature="0"
         style="fill:url(#linearGradient2416)" />
      <path
         id="path2398"
         d="m 181.07,93.434 46.79,218.58 c 0,0 163.21,17.5 178.21,55 l -64.64,-208.58 c 0,0 -2.5,-33.57 -160.36,-64.996 z"
         inkscape:connector-curvature="0"
         style="fill:url(#linearGradient2413)" />
      <path
         id="path2403"
         d="m 342.14,157.72 164.65,-94.644 83.57,194.28 -183.93,110.36 -64.29,-210 z"
         inkscape:connector-curvature="0"
         style="fill:url(#linearGradient2410)" />
      <path
         id="path2411"
         d="m 394.46,377.27 -0.71,-5.89 12.23,-3.22 c 0,0 6.7,18.22 21.34,19.29 l -2.68,4.2 c 0,0 -15.35,0.17 -17.32,-14.83 l -12.86,0.45 z"
         inkscape:connector-curvature="0"
         style="fill:#aa4400" />
      <path
         id="path2415"
         d="m 406.79,369.72 c 0,0 6.6,18.21 20,17.5 l 196.78,-26.79 -8.57,-18.92 -9.64,0.17 v -3.21 c 0,0 -166.2,8.79 -198.57,31.25 z"
         inkscape:connector-curvature="0"
         style="fill:#c8b7b7" />
      <path
         id="path2404"
         d="m 614.93,341.19 -34.34,-77.27 -174,103.79 0.75,1.77 c 0,0 15.52,-19.42 197.99,-31.06 l 0.26,3.03 9.34,-0.26 z"
         inkscape:connector-curvature="0"
         style="fill:#f2f2f2" />
    </g>
  </g>
  <metadata
     id="metadata28">
    <rdf:RDF>
      <cc:Work>
        <dc:format>image/svg+xml</dc:format>
        <dc:type
           rdf:resource="http://purl.org/dc/dcmitype/StillImage" />
        <cc:license
           rdf:resource="http://creativecommons.org/licenses/publicdomain/" />
        <dc:publisher>
          <cc:Agent
             rdf:about="http://openclipart.org/">
            <dc:title>Openclipart</dc:title>
          </cc:Agent>
        </dc:publisher>
        <dc:title>open book</dc:title>
        <dc:date>2010-06-10T13:33:04</dc:date>
        <dc:description>Just practising in Inkscape :-) Maybe it will be useful for somebody.\nOpen book in vectors.</dc:description>
        <dc:source>http://openclipart.org/detail/65557/open-book-by-cyber-nomad</dc:source>
        <dc:creator>
          <cc:Agent>
            <dc:title>cyber-nomad</dc:title>
          </cc:Agent>
        </dc:creator>
        <dc:subject>
          <rdf:Bag>
            <rdf:li>book</rdf:li>
            <rdf:li>clip art</rdf:li>
            <rdf:li>clipart</rdf:li>
            <rdf:li>empty book</rdf:li>
            <rdf:li>open</rdf:li>
            <rdf:li>open book</rdf:li>
          </rdf:Bag>
        </dc:subject>
      </cc:Work>
      <cc:License
         rdf:about="http://creativecommons.org/licenses/publicdomain/">
        <cc:permits
           rdf:resource="http://creativecommons.org/ns#Reproduction" />
        <cc:permits
           rdf:resource="http://creativecommons.org/ns#Distribution" />
        <cc:permits
           rdf:resource="http://creativecommons.org/ns#DerivativeWorks" />
      </cc:License>
    </rdf:RDF>
  </metadata>
</svg>
