<?xml version="1.0" encoding="UTF-8" standalone="no"?>
<!-- Created with Inkscape (http://www.inkscape.org/) -->

<svg
   xmlns:dc="http://purl.org/dc/elements/1.1/"
   xmlns:cc="http://creativecommons.org/ns#"
   xmlns:rdf="http://www.w3.org/1999/02/22-rdf-syntax-ns#"
   xmlns:svg="http://www.w3.org/2000/svg"
   xmlns="http://www.w3.org/2000/svg"
   version="1.2"
   width="64.631798"
   height="41.028282"
   id="svg2">
  <defs
     id="defs4">
    <linearGradient
       id="linearGradient5207">
      <stop
         id="stop5209"
         style="stop-color:#000000;stop-opacity:1"
         offset="0" />
      <stop
         id="stop5211"
         style="stop-color:#000000;stop-opacity:0"
         offset="1" />
    </linearGradient>
  </defs>
  <metadata
     id="metadata7">
    <rdf:RDF>
      <cc:Work
         rdf:about="">
        <dc:format>image/svg+xml</dc:format>
        <dc:type
           rdf:resource="http://purl.org/dc/dcmitype/StillImage" />
        <dc:title></dc:title>
      </cc:Work>
    </rdf:RDF>
  </metadata>
  <g
     transform="translate(-260.27303,-227.22808)"
     id="layer1">
    <g
       transform="matrix(0.96592583,-0.25881905,0.25881905,0.96592583,0,0)"
       id="text5233"
       style="font-size:13.3514843px;font-style:normal;font-variant:normal;font-weight:bold;font-stretch:normal;line-height:125%;letter-spacing:0px;word-spacing:0px;fill:#b60000;fill-opacity:1;stroke:none;font-family:Serif;-inkscape-font-specification:Serif Bold">
      <path
         d="m 199.94988,310.22988 2.85805,0 -0.99093,4.61044 c -0.23644,1.11263 -0.46592,1.96448 -0.68844,2.55556 0.0626,0.36856 0.19296,0.67453 0.39116,0.91791 0.19818,0.24339 0.40158,0.36508 0.6102,0.36508 0.56326,0 0.86228,-0.51459 0.89706,-1.54376 l 0.38594,0 c -0.0139,1.23084 -0.14778,2.06183 -0.40159,2.49297 -0.25383,0.43114 -0.56501,0.64671 -0.93356,0.64671 -0.63977,0 -1.09177,-0.69887 -1.35601,-2.0966 -0.77189,1.39773 -1.96101,2.0966 -3.56735,2.0966 -1.28648,0 -2.32434,-0.44853 -3.11361,-1.34558 -0.78927,-0.89705 -1.1839,-2.05835 -1.1839,-3.4839 0,-1.48813 0.39116,-2.77808 1.17347,-3.86985 0.78231,-1.09175 1.72978,-1.63763 2.84241,-1.63764 0.57021,1e-5 1.05351,0.18255 1.44988,0.54762 0.39637,0.36509 0.78927,0.97529 1.17869,1.83061 z m -0.73016,3.3796 c -0.39638,-1.14739 -0.74234,-1.9071 -1.03787,-2.27914 -0.29555,-0.37203 -0.6415,-0.55804 -1.03787,-0.55805 -0.36856,10e-6 -0.6641,0.24166 -0.88662,0.72494 -0.22253,0.48331 -0.33379,1.89321 -0.33379,4.22971 0,1.34211 0.0713,2.31391 0.21383,2.91542 0.14255,0.60152 0.41897,0.90227 0.82925,0.90227 0.27816,0 0.54762,-0.15994 0.8084,-0.47982 0.26076,-0.31988 0.54761,-1.21693 0.86054,-2.69116 z"
         id="path5266"
         style="font-size:21.36237526px;fill:#b60000;font-family:Serif;-inkscape-font-specification:Serif Bold" />
      <path
         d="m 208.41973,305.8385 0,12.12064 c -10e-6,0.68844 0.08,1.12827 0.23991,1.3195 0.15993,0.19124 0.47286,0.30076 0.93877,0.32858 l 0,0.37551 -5.26757,0 0,-0.37551 c 0.43114,-0.0139 0.75102,-0.13908 0.95963,-0.37551 0.13908,-0.15994 0.20862,-0.58413 0.20862,-1.27257 l 0,-10.09706 c 0,-0.68147 -0.08,-1.11782 -0.23991,-1.30907 -0.15994,-0.19122 -0.46939,-0.30074 -0.92834,-0.32857 l 0,-0.38594 z"
         id="path5268"
         style="font-size:21.36237526px;fill:#b60000;font-family:Serif;-inkscape-font-specification:Serif Bold" />
      <path
         d="m 214.30273,318.9918 0,3.62993 c -1e-5,0.50068 0.04,0.84142 0.11995,1.02222 0.08,0.1808 0.2034,0.31293 0.3703,0.39638 0.16688,0.0834 0.49372,0.12516 0.98049,0.12517 l 0,0.38594 -5.55964,0 0,-0.38594 c 0.43114,-0.0139 0.75102,-0.13561 0.95964,-0.36508 0.13908,-0.15995 0.20862,-0.5737 0.20862,-1.24127 l 0,-10.29525 c 0,-0.68843 -0.08,-1.12826 -0.23991,-1.3195 -0.15994,-0.19123 -0.46939,-0.30075 -0.92835,-0.32857 l 0,-0.38595 4.0889,0 0,1.283 c 0.34073,-0.50067 0.68843,-0.86227 1.04308,-1.08481 0.50763,-0.32682 1.06046,-0.49024 1.6585,-0.49025 0.71625,1e-5 1.36818,0.22601 1.95579,0.67801 0.58759,0.45201 1.03438,1.07612 1.34036,1.87233 0.30596,0.79623 0.45895,1.6533 0.45896,2.57121 -1e-5,0.98745 -0.15821,1.88972 -0.4746,2.7068 -0.31642,0.81709 -0.77537,1.43946 -1.37688,1.86712 -0.60152,0.42767 -1.27083,0.6415 -2.00793,0.6415 -0.53546,0 -1.03614,-0.11822 -1.50205,-0.35465 -0.3477,-0.1808 -0.71278,-0.49025 -1.09523,-0.92834 z m 0,-1.05352 c 0.59803,0.84838 1.23778,1.27257 1.91927,1.27256 0.3755,10e-6 0.68495,-0.19818 0.92835,-0.59455 0.36159,-0.58413 0.54239,-1.69675 0.5424,-3.33788 -1e-5,-1.68283 -0.19819,-2.8337 -0.59456,-3.45261 -0.26425,-0.41027 -0.6189,-0.61541 -1.06394,-0.61542 -0.70235,1e-5 -1.27953,0.50765 -1.73152,1.52291 z"
         id="path5270"
         style="font-size:21.36237526px;fill:#b60000;font-family:Serif;-inkscape-font-specification:Serif Bold" />
      <path
         d="m 226.40251,305.8385 0,5.64309 c 0.53544,-0.56326 1.02569,-0.96137 1.47075,-1.19434 0.44504,-0.23294 0.90747,-0.34942 1.3873,-0.34943 0.61194,1e-5 1.13522,0.17386 1.56984,0.52154 0.43461,0.34771 0.7232,0.75625 0.86576,1.22563 0.14255,0.46939 0.21383,1.2604 0.21384,2.37302 l 0,3.80726 c -1e-5,0.74406 0.0695,1.20824 0.20861,1.39251 0.13907,0.18428 0.4207,0.30076 0.8449,0.34944 l 0,0.37551 -4.94422,0 0,-0.37551 c 0.34769,-0.0487 0.60846,-0.18776 0.78231,-0.41724 0.12517,-0.1808 0.18775,-0.62237 0.18776,-1.32471 l 0,-4.34967 c -1e-5,-0.80664 -0.0313,-1.31254 -0.0939,-1.51769 -0.0626,-0.20513 -0.16864,-0.36507 -0.31814,-0.47982 -0.14952,-0.11473 -0.31815,-0.1721 -0.5059,-0.1721 -0.27816,0 -0.54936,0.0956 -0.8136,0.28684 -0.26426,0.19124 -0.54936,0.52677 -0.85533,1.00658 l 0,5.22586 c -1e-5,0.69539 0.0521,1.13 0.15646,1.30385 0.13212,0.23643 0.40332,0.38247 0.81361,0.4381 l 0,0.37551 -4.94422,0 0,-0.37551 c 0.41027,-0.0417 0.70234,-0.17385 0.87619,-0.39638 0.11821,-0.15298 0.17732,-0.60151 0.17732,-1.34557 l 0,-9.90931 c 0,-0.7371 -0.0678,-1.19606 -0.2034,-1.37687 -0.1356,-0.18079 -0.41897,-0.29901 -0.85011,-0.35465 l 0,-0.38594 z"
         id="path5272"
         style="font-size:21.36237526px;fill:#b60000;font-family:Serif;-inkscape-font-specification:Serif Bold" />
      <path
         d="m 239.69141,318.54327 c -1.18912,1.05004 -2.25655,1.57506 -3.20227,1.57506 -0.55632,0 -1.01875,-0.18254 -1.38731,-0.54762 -0.36855,-0.36508 -0.55283,-0.8223 -0.55283,-1.37166 0,-0.74406 0.31988,-1.41337 0.95964,-2.00794 0.63975,-0.59455 2.03401,-1.38555 4.18277,-2.37301 l 0,-0.9805 c -1e-5,-0.73711 -0.04,-1.20128 -0.11996,-1.39252 -0.08,-0.19122 -0.23122,-0.35812 -0.45374,-0.50068 -0.22253,-0.14255 -0.47287,-0.21383 -0.75102,-0.21383 -0.45201,0 -0.82404,0.10084 -1.1161,0.30249 -0.18081,0.12518 -0.27121,0.27121 -0.2712,0.4381 -1e-5,0.14604 0.0974,0.32684 0.29206,0.5424 0.26424,0.29903 0.39637,0.58761 0.39637,0.86576 0,0.34075 -0.12691,0.63107 -0.38072,0.87098 -0.25382,0.23991 -0.58587,0.35987 -0.99615,0.35986 -0.4381,10e-6 -0.80491,-0.13212 -1.10045,-0.39637 -0.29555,-0.26424 -0.44332,-0.57369 -0.44331,-0.92835 -1e-5,-0.50067 0.19818,-0.97875 0.59455,-1.43424 0.39637,-0.45547 0.94921,-0.8049 1.65851,-1.0483 0.70929,-0.24338 1.4464,-0.36507 2.21134,-0.36508 0.92486,1e-5 1.65676,0.19646 2.19569,0.58934 0.53892,0.39291 0.88835,0.81883 1.0483,1.27778 0.0974,0.29207 0.14602,0.96312 0.14603,2.01316 l 0,3.78639 c -1e-5,0.44506 0.0174,0.72495 0.0522,0.83969 0.0348,0.11474 0.0869,0.19992 0.15646,0.25555 0.0695,0.0556 0.1495,0.0835 0.23991,0.0835 0.18079,0 0.36507,-0.12865 0.55283,-0.38594 l 0.31293,0.25034 c -0.3477,0.51459 -0.70757,0.88836 -1.07959,1.12131 -0.37205,0.23296 -0.79449,0.34944 -1.26735,0.34944 -0.55632,0 -0.99094,-0.13039 -1.30386,-0.39116 -0.31293,-0.26077 -0.50416,-0.6554 -0.57369,-1.1839 z m 0,-0.76145 0,-3.26486 c -0.84143,0.49373 -1.46728,1.02223 -1.87756,1.58549 -0.2712,0.37552 -0.4068,0.7545 -0.4068,1.13696 0,0.31989 0.11474,0.60152 0.34422,0.8449 0.17384,0.18776 0.41723,0.28164 0.73016,0.28164 0.34769,0 0.75101,-0.19471 1.20998,-0.58413 z"
         id="path5274"
         style="font-size:21.36237526px;fill:#b60000;font-family:Serif;-inkscape-font-specification:Serif Bold" />
    </g>
    <rect
       width="58.455505"
       height="25.075096"
       x="189.27104"
       y="302.49066"
       transform="matrix(0.96592583,-0.25881905,0.25881905,0.96592583,0,0)"
       id="rect2993"
       style="fill:none;stroke:#a10000;stroke-width:1.67820156;stroke-linecap:round;stroke-linejoin:round;stroke-miterlimit:4;stroke-opacity:1;stroke-dasharray:5.03460477, 5.03460477;stroke-dashoffset:6.88062652" />
  </g>
  <g
     transform="translate(-260.27303,-227.22808)"
     id="g5253"
     style="display:none">
    <text
       x="191.94942"
       y="319.98273"
       transform="matrix(0.96592583,-0.25881905,0.25881905,0.96592583,0,0)"
       id="text5255"
       xml:space="preserve"
       style="font-size:13.3514843px;font-style:normal;font-variant:normal;font-weight:bold;font-stretch:normal;line-height:125%;letter-spacing:0px;word-spacing:0px;fill:#b60000;fill-opacity:1;stroke:none;font-family:Serif;-inkscape-font-specification:Serif Bold"><tspan
         x="203.88231"
         y="0"
         id="tspan5257"><tspan
           x="191.94942"
           y="319.98273"
           id="tspan5259"
           style="font-size:21.36237526px;fill:#b60000;font-family:Serif;-inkscape-font-specification:Serif Bold">α</tspan><tspan
           x="203.88231"
           y="319.98273"
           id="tspan5261"
           style="font-size:21.36237526px;fill:#b60000;font-family:Serif;-inkscape-font-specification:Serif Bold">lpha</tspan></tspan></text>
    <rect
       width="58.455505"
       height="25.075096"
       x="189.27104"
       y="302.49066"
       transform="matrix(0.96592583,-0.25881905,0.25881905,0.96592583,0,0)"
       id="rect5263"
       style="fill:none;stroke:#a10000;stroke-width:1.67820156;stroke-linecap:round;stroke-linejoin:round;stroke-miterlimit:4;stroke-opacity:1;stroke-dasharray:5.03460477, 5.03460477;stroke-dashoffset:6.88062652" />
  </g>
</svg>
